Coordinates
version=1
nRows=14
nColumns=46
inDegrees=yes

Units are S.I. units (second, meters, Newtons, ...)
Angles are in degrees.

endheader
time	pelvis_tilt	pelvis_list	pelvis_rotation	pelvis_tx	pelvis_ty	pelvis_tz	bb_angle	bb_tx	bb_ty	bb_tz	hip_flexion_r	hip_adduction_r	hip_rotation_r	knee_angle_r	knee_angle_r_beta	ankle_angle_r	subtalar_angle_r	mtp_angle_r	crank_angle_r	hip_flexion_l	hip_adduction_l	hip_rotation_l	knee_angle_l	knee_angle_l_beta	ankle_angle_l	subtalar_angle_l	mtp_angle_l	crank_angle_l	lumbar_extension	lumbar_bending	lumbar_rotation	arm_flex_r	arm_add_r	arm_rot_r	elbow_flex_r	pro_sup_r	wrist_flex_r	wrist_dev_r	arm_flex_l	arm_add_l	arm_rot_l	elbow_flex_l	pro_sup_l	wrist_flex_l	wrist_dev_l
      2.50000000	    -14.51635528	      5.70144716	      1.79890343	      0.33282210	      1.18814808	     -0.23467469	      0.00000000	      0.50000000	      0.00000000	      0.25000000	     40.17915606	    -12.45422902	     -4.09798659	     44.59660859	      0.77835766	      2.89336204	      1.03908757	      0.00000000	      0.00000000	     61.65204756	    -14.09910473	     -5.91543130	    104.47142019	      1.82337026	     -1.26199935	     13.62261522	      0.00000000	      0.00000000	    -50.07056732	     -2.06168714	     -7.64509870	     69.44033604	      0.49020493	     34.40688150	     24.76455793	     36.94265022	      0.00000000	      0.00000000	     75.94876710	    -10.32996812	     74.26828009	     13.56258648	     40.84813215	      0.00000000	      0.00000000
      2.50500000	    -14.62933012	      5.91029185	      2.01274317	      0.33370173	      1.18835799	     -0.23468372	      0.00000000	      0.50000000	      0.00000000	      0.25000000	     39.59971905	    -12.69486966	     -4.16858459	     43.81990772	      0.76480167	      2.41354700	      1.11965823	      0.00000000	      0.00000000	     62.12464234	    -13.92529774	     -5.99875021	    104.81683769	      1.82939893	     -2.91380524	     14.41562821	      0.00000000	      0.00000000	    -50.01688645	     -2.22481728	     -7.74372887	     69.22081493	      0.65515061	     32.31727435	     24.76780112	     37.44682544	      0.00000000	      0.00000000	     75.62165507	     -9.48324392	     70.94490545	     12.90795032	     41.04853052	      0.00000000	      0.00000000
      2.51000000	    -14.54800154	      5.97052382	      2.20944317	      0.33472884	      1.18893885	     -0.23469432	      0.00000000	      0.50000000	      0.00000000	      0.25000000	     38.72417678	    -12.81335583	     -4.42172673	     42.94725885	      0.74957107	      1.87812888	      1.15559308	      0.00000000	      0.00000000	     62.40528490	    -13.91998947	     -5.88989923	    105.33459893	      1.83843557	     -0.95552823	     14.65504351	      0.00000000	      0.00000000	    -50.19360007	     -2.27522679	     -7.82349315	     69.16637984	      0.54477714	     32.57822089	     24.74252714	     37.49092102	      0.00000000	      0.00000000	     75.70739638	     -9.48093094	     71.30766613	     13.24738441	     41.23096264	      0.00000000	      0.00000000
      2.51500000	    -14.54358405	      6.09351027	      2.42385925	      0.33555956	      1.18953118	     -0.23462221	      0.00000000	      0.50000000	      0.00000000	      0.25000000	     37.95623801	    -12.99390649	     -4.65408485	     42.09102731	      0.73462701	      1.30983735	      1.21825977	      0.00000000	      0.00000000	     62.75658986	    -13.81781645	     -5.86461525	    105.73123074	      1.84535810	     -0.31435334	     14.78094347	      0.00000000	      0.00000000	    -50.29454719	     -2.32165302	     -8.00221160	     69.45084609	      0.18924207	     34.83871538	     24.09477485	     38.03484579	      0.00000000	      0.00000000	     76.09511458	    -10.10590217	     74.28259853	     13.60441763	     42.78103938	      0.00000000	      0.00000000
      2.52000000	    -14.73569573	      6.27833765	      2.59661656	      0.33645182	      1.18991752	     -0.23446314	      0.00000000	      0.50000000	      0.00000000	      0.25000000	     37.40323914	    -13.16786501	     -4.76733907	     41.21083822	      0.71926481	      0.82601109	      1.33997711	      0.00000000	      0.00000000	     63.26260955	    -13.79706799	     -5.97722190	    106.14306856	      1.85254602	      0.93696556	     14.39803915	      0.00000000	      0.00000000	    -50.20755177	     -2.59881062	     -8.20885331	     69.34413100	      0.11877720	     34.82710003	     24.03832337	     38.02473823	      0.00000000	      0.00000000	     76.15591355	     -9.99562195	     74.30397737	     13.65810759	     42.80224757	      0.00000000	      0.00000000
      2.52500000	    -14.89665990	      6.45822553	      2.78855033	      0.33726705	      1.19055178	     -0.23440464	      0.00000000	      0.50000000	      0.00000000	      0.25000000	     36.81544067	    -13.40141021	     -5.04523446	     40.32963680	      0.70388495	      0.22790690	      1.44129436	      0.00000000	      0.00000000	     63.72268537	    -13.67793232	     -6.09641631	    106.47075021	      1.85826515	      1.57821911	     14.38592465	      0.00000000	      0.00000000	    -50.17145638	     -2.79683575	     -8.38755056	     69.29088341	      0.04420466	     34.81336574	     23.98163003	     38.01345925	      0.00000000	      0.00000000	     76.17835731	     -9.87400915	     74.33180520	     13.71026882	     42.82433807	      0.00000000	      0.00000000
      2.53000000	    -14.72835750	      6.52733797	      3.21627852	      0.33811103	      1.19215949	     -0.23468833	      0.00000000	      0.50000000	      0.00000000	      0.25000000	     35.66365444	    -13.65657446	     -5.62405264	     39.21923714	      0.68450482	     -0.68607734	      1.39506411	      0.00000000	      0.00000000	     63.85109248	    -13.30928017	     -5.93990556	    106.67553332	      1.86183929	      2.27627154	     14.80237340	      0.00000000	      0.00000000	    -50.53543664	     -2.63601584	     -8.52864155	     69.35969425	     -0.05258567	     34.78886158	     23.85924302	     37.98297423	      0.00000000	      0.00000000	     76.32032970	     -9.69258833	     74.41642707	     13.68790075	     42.88712670	      0.00000000	      0.00000000
      2.53500000	    -14.99104140	      6.73235976	      3.42153282	      0.33879432	      1.19301475	     -0.23461932	      0.00000000	      0.50000000	      0.00000000	      0.25000000	     35.15282270	    -13.88833491	     -5.78627184	     38.28108075	      0.66813090	     -1.28757567	      1.63723755	      0.00000000	      0.00000000	     64.36953227	    -13.15214350	     -6.13286252	    106.90177858	      1.86578801	      2.73864592	     14.88004451	      0.00000000	      0.00000000	    -50.46429192	     -2.86131328	     -8.74225701	     69.33436427	     -0.09209036	     34.78783405	     23.78205459	     37.96950985	      0.00000000	      0.00000000	     76.45417691	     -9.57875485	     74.43369349	     13.72123295	     42.90366479	      0.00000000	      0.00000000
      2.54000000	    -14.92505541	      6.82231935	      3.79198112	      0.33955724	      1.19475593	     -0.23481300	      0.00000000	      0.50000000	      0.00000000	      0.25000000	     34.13249715	    -14.15713515	     -6.43360566	     37.18217104	      0.64895131	     -2.21178122	      1.80803308	      0.00000000	      0.00000000	     64.55246197	    -12.83990000	     -6.07892475	    107.04785853	      1.86833759	      3.37749962	     15.15819081	      0.00000000	      0.00000000	    -50.75463482	     -2.77557410	     -8.92969114	     69.43024596	     -0.13956308	     34.79292325	     23.53550188	     37.92244030	      0.00000000	      0.00000000	     76.56074963	     -9.38622205	     74.51994146	     13.66597108	     42.95864223	      0.00000000	      0.00000000
      2.54500000	    -15.25684706	      7.01324814	      3.97693687	      0.34008457	      1.19587292	     -0.23464763	      0.00000000	      0.50000000	      0.00000000	      0.25000000	     33.68151302	    -14.35467180	     -6.61655964	     36.20250666	      0.63185294	     -2.82360120	      2.06413378	      0.00000000	      0.00000000	     65.10058492	    -12.65317927	     -6.25555847	    107.14756991	      1.87007788	      3.86858771	     15.19892335	      0.00000000	      0.00000000	    -50.67583461	     -3.11001858	     -9.10942303	     69.45442302	     -0.20182452	     34.78866162	     23.43691228	     37.90414615	      0.00000000	      0.00000000	     76.75329685	     -9.24364345	     74.53623869	     13.69817149	     42.97362123	      0.00000000	      0.00000000
      2.55000000	    -15.48721325	      7.18741965	      4.21500867	      0.34059954	      1.19743050	     -0.23460255	      0.00000000	      0.50000000	      0.00000000	      0.25000000	     33.06464416	    -14.57244429	     -6.87463694	     35.15066328	      0.61349481	     -3.75217843	      2.31835521	      0.00000000	      0.00000000	     65.51360782	    -12.38683710	     -6.38566281	    107.18258965	      1.87068909	      4.44191440	     15.25697409	      0.00000000	      0.00000000	    -50.65961033	     -3.21257917	     -9.26662743	     69.48835157	     -0.23344569	     34.78755296	     23.27960951	     37.87553688	      0.00000000	      0.00000000	     76.85611511	     -9.09777824	     74.56683207	     13.70272077	     42.99226105	      0.00000000	      0.00000000
      2.55500000	    -15.33667987	      7.23606181	      4.55839135	      0.34128698	      1.19987716	     -0.23461302	      0.00000000	      0.50000000	      0.00000000	      0.25000000	     31.87312675	    -14.74037715	     -7.64986011	     33.91426160	      0.59191553	     -4.81387719	      2.30724168	      0.00000000	      0.00000000	     65.55111120	    -12.10643199	     -6.33103437	    107.16188495	      1.87032773	      5.02091181	     15.55315468	      0.00000000	      0.00000000	    -51.12103134	     -3.14713998	     -9.41215460	     69.79969997	     -0.19401765	     34.80045043	     22.78116299	     37.78012629	      0.00000000	      0.00000000	     77.13424237	     -8.84036979	     74.65723150	     13.52579033	     43.03721931	      0.00000000	      0.00000000
      2.56000000	    -15.72666480	      7.37201352	      4.69941252	      0.34159328	      1.20132446	     -0.23430154	      0.00000000	      0.50000000	      0.00000000	      0.25000000	     31.51048189	    -14.86316663	     -7.91685862	     32.94220220	      0.57494989	     -5.50771687	      2.57551847	      0.00000000	      0.00000000	     66.12272268	    -11.92071567	     -6.45962658	    107.11731285	      1.86954980	      5.55146882	     15.55123188	      0.00000000	      0.00000000	    -51.02449980	     -3.46827260	     -9.59546862	     69.89096743	     -0.23030024	     34.79679885	     22.66843660	     37.75803955	      0.00000000	      0.00000000	     77.32957793	     -8.69051557	     74.66955005	     13.56317267	     43.04991194	      0.00000000	      0.00000000
      2.56500000	    -15.66016421	      7.37235306	      5.00893505	      0.34217370	      1.20393403	     -0.23430674	      0.00000000	      0.50000000	      0.00000000	      0.25000000	     30.39053964	    -14.92907848	     -8.63764408	     31.59316480	      0.55140475	     -6.92195212	      2.56881888	      0.00000000	      0.00000000	     66.21805332	    -11.62512967	     -6.32912120	    107.01228926	      1.86771679	      6.11250978	     15.78005105	      0.00000000	      0.00000000	    -51.40771124	     -3.39374771	     -9.59234696	     70.15435978	     -0.26892511	     34.79655236	     22.11012529	     37.64996946	      0.00000000	      0.00000000	     77.56594781	     -8.37117146	     74.75032796	     13.42264050	     43.09272789	      0.00000000	      0.00000000
